<svg width="1037" height="600" viewBox="0 0 1037 600" fill="none" xmlns="http://www.w3.org/2000/svg">
<mask id="path-1-inside-1" fill="white">
<path d="M865 300C865 465.685 730.685 600 565 600C399.315 600 265 465.685 265 300C265 134.315 399.315 0 565 0C730.685 0 865 134.315 865 300ZM340 300C340 424.264 440.736 525 565 525C689.264 525 790 424.264 790 300C790 175.736 689.264 75 565 75C440.736 75 340 175.736 340 300Z"/>
</mask>
<path d="M865 300C865 465.685 730.685 600 565 600C399.315 600 265 465.685 265 300C265 134.315 399.315 0 565 0C730.685 0 865 134.315 865 300ZM340 300C340 424.264 440.736 525 565 525C689.264 525 790 424.264 790 300C790 175.736 689.264 75 565 75C440.736 75 340 175.736 340 300Z" fill="#C9D6DF" stroke="#DDDDDD" stroke-width="4" stroke-linecap="round" mask="url(#path-1-inside-1)"/>
<mask id="path-2-inside-2" fill="white">
<path d="M565 0C641.63 9.138e-07 715.355 29.3238 771.05 81.9557C826.746 134.588 860.189 206.537 864.52 283.044C868.851 359.552 843.741 434.816 794.341 493.397C744.942 551.978 674.997 589.435 598.857 598.083C522.717 606.732 446.154 585.915 384.874 539.905C323.594 493.895 282.244 426.18 269.307 350.65C256.369 275.12 272.825 197.503 315.298 133.721C357.771 69.9389 423.041 24.8277 497.719 7.64194L514.539 80.7315C458.531 93.6208 409.578 127.454 377.723 175.291C345.868 223.127 333.527 281.34 343.23 337.988C352.933 394.635 383.946 445.422 429.905 479.929C475.865 514.437 533.288 530.049 590.393 523.563C647.498 517.076 699.956 488.984 737.006 445.048C774.056 401.112 792.889 344.664 789.64 287.283C786.392 229.903 761.309 175.941 719.538 136.467C677.766 96.9928 622.472 75 565 75L565 0Z"/>
</mask>
<path d="M565 0C641.63 9.138e-07 715.355 29.3238 771.05 81.9557C826.746 134.588 860.189 206.537 864.52 283.044C868.851 359.552 843.741 434.816 794.341 493.397C744.942 551.978 674.997 589.435 598.857 598.083C522.717 606.732 446.154 585.915 384.874 539.905C323.594 493.895 282.244 426.18 269.307 350.65C256.369 275.12 272.825 197.503 315.298 133.721C357.771 69.9389 423.041 24.8277 497.719 7.64194L514.539 80.7315C458.531 93.6208 409.578 127.454 377.723 175.291C345.868 223.127 333.527 281.34 343.23 337.988C352.933 394.635 383.946 445.422 429.905 479.929C475.865 514.437 533.288 530.049 590.393 523.563C647.498 517.076 699.956 488.984 737.006 445.048C774.056 401.112 792.889 344.664 789.64 287.283C786.392 229.903 761.309 175.941 719.538 136.467C677.766 96.9928 622.472 75 565 75L565 0Z" fill="#52616B" stroke="#DDDDDD" stroke-width="4" stroke-linecap="round" mask="url(#path-2-inside-2)"/>
<mask id="path-3-inside-3" fill="white">
<path d="M565 0C612.901 5.7121e-07 660.105 11.4701 702.665 33.4509C745.224 55.4316 781.902 87.284 809.629 126.344C837.357 165.403 855.328 210.535 862.04 257.963C868.752 305.391 864.01 353.737 848.209 398.957C832.409 444.176 806.01 484.955 771.221 517.882C736.432 550.81 694.264 574.928 648.245 588.219C602.225 601.511 553.692 603.59 506.704 594.281C459.716 584.973 415.641 564.549 378.164 534.717L424.873 476.038C452.981 498.412 486.037 513.73 521.278 520.711C556.519 527.692 592.919 526.133 627.434 516.164C661.948 506.196 693.574 488.107 719.666 463.412C745.758 438.716 765.557 408.132 777.407 374.217C789.257 340.303 792.814 304.043 787.78 268.472C782.746 232.901 769.268 199.053 748.472 169.758C727.676 140.463 700.168 116.574 668.248 100.088C636.329 83.6026 600.926 75 565 75L565 0Z"/>
</mask>
<path d="M565 0C612.901 5.7121e-07 660.105 11.4701 702.665 33.4509C745.224 55.4316 781.902 87.284 809.629 126.344C837.357 165.403 855.328 210.535 862.04 257.963C868.752 305.391 864.01 353.737 848.209 398.957C832.409 444.176 806.01 484.955 771.221 517.882C736.432 550.81 694.264 574.928 648.245 588.219C602.225 601.511 553.692 603.59 506.704 594.281C459.716 584.973 415.641 564.549 378.164 534.717L424.873 476.038C452.981 498.412 486.037 513.73 521.278 520.711C556.519 527.692 592.919 526.133 627.434 516.164C661.948 506.196 693.574 488.107 719.666 463.412C745.758 438.716 765.557 408.132 777.407 374.217C789.257 340.303 792.814 304.043 787.78 268.472C782.746 232.901 769.268 199.053 748.472 169.758C727.676 140.463 700.168 116.574 668.248 100.088C636.329 83.6026 600.926 75 565 75L565 0Z" fill="#001B36" stroke="#DDDDDD" stroke-width="4" stroke-linecap="round" mask="url(#path-3-inside-3)"/>
<mask id="path-4-inside-4" fill="white">
<path d="M565 0C604.397 4.69799e-07 643.407 7.75973 679.805 22.8361C716.203 37.9126 749.274 60.0104 777.132 87.868C804.99 115.726 827.087 148.797 842.164 185.195C857.24 221.593 865 260.603 865 300L790 300C790 270.453 784.18 241.195 772.873 213.896C761.566 186.598 744.992 161.794 724.099 140.901C703.206 120.008 678.402 103.434 651.104 92.1271C623.806 80.8198 594.547 75 565 75L565 0Z"/>
</mask>
<path d="M565 0C604.397 4.69799e-07 643.407 7.75973 679.805 22.8361C716.203 37.9126 749.274 60.0104 777.132 87.868C804.99 115.726 827.087 148.797 842.164 185.195C857.24 221.593 865 260.603 865 300L790 300C790 270.453 784.18 241.195 772.873 213.896C761.566 186.598 744.992 161.794 724.099 140.901C703.206 120.008 678.402 103.434 651.104 92.1271C623.806 80.8198 594.547 75 565 75L565 0Z" fill="#0084F8" stroke="#DDDDDD" stroke-width="4" stroke-linecap="round" mask="url(#path-4-inside-4)"/>
<line x1="718" y1="100.222" x2="1037" y2="100.222" stroke="#AEAEAE" stroke-width="2"/>
<path d="M997.607 90.542C997.607 92.4463 997.282 93.8613 996.632 94.7871C995.981 95.7129 994.965 96.1758 993.582 96.1758C992.217 96.1758 991.206 95.7246 990.55 94.8223C989.894 93.9141 989.554 92.5605 989.53 90.7617V88.5908C989.53 86.71 989.855 85.3125 990.506 84.3984C991.156 83.4844 992.176 83.0273 993.564 83.0273C994.941 83.0273 995.955 83.4697 996.605 84.3545C997.256 85.2334 997.59 86.5928 997.607 88.4326V90.542ZM995.981 88.3184C995.981 86.9414 995.788 85.9395 995.401 85.3125C995.015 84.6797 994.402 84.3633 993.564 84.3633C992.732 84.3633 992.126 84.6768 991.745 85.3037C991.364 85.9307 991.168 86.8945 991.156 88.1953V90.7969C991.156 92.1797 991.355 93.2021 991.754 93.8643C992.158 94.5205 992.768 94.8486 993.582 94.8486C994.385 94.8486 994.979 94.5381 995.366 93.917C995.759 93.2959 995.964 92.3174 995.981 90.9814V88.3184ZM1003.24 91.2275H998.952V89.9004H1003.24V91.2275ZM1013.05 96H1004.67V94.8311L1009.09 89.9092C1009.75 89.165 1010.2 88.5615 1010.45 88.0986C1010.7 87.6299 1010.83 87.1465 1010.83 86.6484C1010.83 85.9805 1010.62 85.4326 1010.22 85.0049C1009.82 84.5771 1009.28 84.3633 1008.6 84.3633C1007.79 84.3633 1007.16 84.5947 1006.71 85.0576C1006.27 85.5146 1006.04 86.1533 1006.04 86.9736H1004.42C1004.42 85.7959 1004.8 84.8438 1005.55 84.1172C1006.31 83.3906 1007.33 83.0273 1008.6 83.0273C1009.79 83.0273 1010.73 83.3408 1011.42 83.9678C1012.12 84.5889 1012.46 85.418 1012.46 86.4551C1012.46 87.7148 1011.66 89.2148 1010.05 90.9551L1006.62 94.6729H1013.05V96ZM1015.52 89.584L1016.17 83.2031H1022.73V84.7061H1017.55L1017.16 88.1953C1017.79 87.8262 1018.5 87.6416 1019.3 87.6416C1020.46 87.6416 1021.39 88.0283 1022.08 88.8018C1022.76 89.5693 1023.1 90.6094 1023.1 91.9219C1023.1 93.2402 1022.75 94.2803 1022.03 95.042C1021.32 95.7979 1020.33 96.1758 1019.05 96.1758C1017.92 96.1758 1017 95.8623 1016.28 95.2354C1015.57 94.6084 1015.16 93.7412 1015.06 92.6338H1016.6C1016.7 93.3662 1016.96 93.9199 1017.38 94.2949C1017.8 94.6641 1018.36 94.8486 1019.05 94.8486C1019.81 94.8486 1020.4 94.5908 1020.83 94.0752C1021.26 93.5596 1021.48 92.8477 1021.48 91.9395C1021.48 91.084 1021.24 90.3984 1020.78 89.8828C1020.31 89.3613 1019.69 89.1006 1018.92 89.1006C1018.21 89.1006 1017.66 89.2559 1017.25 89.5664L1016.82 89.918L1015.52 89.584ZM1024.74 85.6641C1024.74 84.8965 1024.98 84.2637 1025.47 83.7656C1025.96 83.2676 1026.59 83.0186 1027.36 83.0186C1028.14 83.0186 1028.77 83.2705 1029.25 83.7744C1029.73 84.2725 1029.98 84.9199 1029.98 85.7168V86.3408C1029.98 87.1143 1029.73 87.7471 1029.24 88.2393C1028.75 88.7256 1028.13 88.9688 1027.38 88.9688C1026.61 88.9688 1025.98 88.7256 1025.49 88.2393C1024.99 87.7471 1024.74 87.0938 1024.74 86.2793V85.6641ZM1025.95 86.3408C1025.95 86.7979 1026.08 87.1758 1026.34 87.4746C1026.6 87.7676 1026.94 87.9141 1027.38 87.9141C1027.79 87.9141 1028.13 87.7705 1028.38 87.4834C1028.64 87.1963 1028.76 86.8037 1028.76 86.3057V85.6641C1028.76 85.207 1028.64 84.8291 1028.39 84.5303C1028.13 84.2314 1027.79 84.082 1027.36 84.082C1026.92 84.082 1026.58 84.2314 1026.33 84.5303C1026.08 84.8291 1025.95 85.2188 1025.95 85.6992V86.3408ZM1030.97 92.8623C1030.97 92.0947 1031.21 91.4648 1031.7 90.9727C1032.19 90.4746 1032.82 90.2256 1033.59 90.2256C1034.36 90.2256 1034.99 90.4717 1035.48 90.9639C1035.97 91.4561 1036.22 92.1094 1036.22 92.9238V93.5479C1036.22 94.3154 1035.97 94.9482 1035.48 95.4463C1034.99 95.9385 1034.37 96.1846 1033.61 96.1846C1032.85 96.1846 1032.22 95.9414 1031.72 95.4551C1031.22 94.9629 1030.97 94.3096 1030.97 93.4951V92.8623ZM1032.18 93.5479C1032.18 94.0107 1032.31 94.3916 1032.57 94.6904C1032.83 94.9834 1033.17 95.1299 1033.61 95.1299C1034.03 95.1299 1034.37 94.9863 1034.62 94.6992C1034.87 94.4062 1035 94.0107 1035 93.5127V92.8623C1035 92.3994 1034.87 92.0215 1034.61 91.7285C1034.36 91.4355 1034.02 91.2891 1033.59 91.2891C1033.17 91.2891 1032.83 91.4355 1032.57 91.7285C1032.31 92.0156 1032.18 92.4053 1032.18 92.8975V93.5479ZM1027.75 95.0332L1026.82 94.4531L1033.07 84.4512L1033.99 85.0312L1027.75 95.0332Z" fill="#EEEEEE"/>
<path d="M1013.05 123H1004.67V121.831L1009.09 116.909C1009.75 116.165 1010.2 115.562 1010.45 115.099C1010.7 114.63 1010.83 114.146 1010.83 113.648C1010.83 112.98 1010.62 112.433 1010.22 112.005C1009.82 111.577 1009.28 111.363 1008.6 111.363C1007.79 111.363 1007.16 111.595 1006.71 112.058C1006.27 112.515 1006.04 113.153 1006.04 113.974H1004.42C1004.42 112.796 1004.8 111.844 1005.55 111.117C1006.31 110.391 1007.33 110.027 1008.6 110.027C1009.79 110.027 1010.73 110.341 1011.42 110.968C1012.12 111.589 1012.46 112.418 1012.46 113.455C1012.46 114.715 1011.66 116.215 1010.05 117.955L1006.62 121.673H1013.05V123ZM1015.52 116.584L1016.17 110.203H1022.73V111.706H1017.55L1017.16 115.195C1017.79 114.826 1018.5 114.642 1019.3 114.642C1020.46 114.642 1021.39 115.028 1022.08 115.802C1022.76 116.569 1023.1 117.609 1023.1 118.922C1023.1 120.24 1022.75 121.28 1022.03 122.042C1021.32 122.798 1020.33 123.176 1019.05 123.176C1017.92 123.176 1017 122.862 1016.28 122.235C1015.57 121.608 1015.16 120.741 1015.06 119.634H1016.6C1016.7 120.366 1016.96 120.92 1017.38 121.295C1017.8 121.664 1018.36 121.849 1019.05 121.849C1019.81 121.849 1020.4 121.591 1020.83 121.075C1021.26 120.56 1021.48 119.848 1021.48 118.939C1021.48 118.084 1021.24 117.398 1020.78 116.883C1020.31 116.361 1019.69 116.101 1018.92 116.101C1018.21 116.101 1017.66 116.256 1017.25 116.566L1016.82 116.918L1015.52 116.584ZM1024.74 112.664C1024.74 111.896 1024.98 111.264 1025.47 110.766C1025.96 110.268 1026.59 110.019 1027.36 110.019C1028.14 110.019 1028.77 110.271 1029.25 110.774C1029.73 111.272 1029.98 111.92 1029.98 112.717V113.341C1029.98 114.114 1029.73 114.747 1029.24 115.239C1028.75 115.726 1028.13 115.969 1027.38 115.969C1026.61 115.969 1025.98 115.726 1025.49 115.239C1024.99 114.747 1024.74 114.094 1024.74 113.279V112.664ZM1025.95 113.341C1025.95 113.798 1026.08 114.176 1026.34 114.475C1026.6 114.768 1026.94 114.914 1027.38 114.914C1027.79 114.914 1028.13 114.771 1028.38 114.483C1028.64 114.196 1028.76 113.804 1028.76 113.306V112.664C1028.76 112.207 1028.64 111.829 1028.39 111.53C1028.13 111.231 1027.79 111.082 1027.36 111.082C1026.92 111.082 1026.58 111.231 1026.33 111.53C1026.08 111.829 1025.95 112.219 1025.95 112.699V113.341ZM1030.97 119.862C1030.97 119.095 1031.21 118.465 1031.7 117.973C1032.19 117.475 1032.82 117.226 1033.59 117.226C1034.36 117.226 1034.99 117.472 1035.48 117.964C1035.97 118.456 1036.22 119.109 1036.22 119.924V120.548C1036.22 121.315 1035.97 121.948 1035.48 122.446C1034.99 122.938 1034.37 123.185 1033.61 123.185C1032.85 123.185 1032.22 122.941 1031.72 122.455C1031.22 121.963 1030.97 121.31 1030.97 120.495V119.862ZM1032.18 120.548C1032.18 121.011 1032.31 121.392 1032.57 121.69C1032.83 121.983 1033.17 122.13 1033.61 122.13C1034.03 122.13 1034.37 121.986 1034.62 121.699C1034.87 121.406 1035 121.011 1035 120.513V119.862C1035 119.399 1034.87 119.021 1034.61 118.729C1034.36 118.436 1034.02 118.289 1033.59 118.289C1033.17 118.289 1032.83 118.436 1032.57 118.729C1032.31 119.016 1032.18 119.405 1032.18 119.897V120.548ZM1027.75 122.033L1026.82 121.453L1033.07 111.451L1033.99 112.031L1027.75 122.033Z" fill="#EAEAEA"/>
<line x1="200" y1="40.7219" x2="519" y2="40.7219" stroke="#EEEEEE"/>
<path d="M209.325 24.1172L204.025 36H202.32L207.603 24.5391H200.677V23.2031H209.325V24.1172ZM211.918 29.584L212.568 23.2031H219.125V24.7061H213.948L213.562 28.1953C214.188 27.8262 214.9 27.6416 215.697 27.6416C216.863 27.6416 217.789 28.0283 218.475 28.8018C219.16 29.5693 219.503 30.6094 219.503 31.9219C219.503 33.2402 219.146 34.2803 218.431 35.042C217.722 35.7979 216.729 36.1758 215.451 36.1758C214.32 36.1758 213.397 35.8623 212.683 35.2354C211.968 34.6084 211.561 33.7412 211.461 32.6338H212.999C213.099 33.3662 213.359 33.9199 213.781 34.2949C214.203 34.6641 214.76 34.8486 215.451 34.8486C216.207 34.8486 216.799 34.5908 217.227 34.0752C217.66 33.5596 217.877 32.8477 217.877 31.9395C217.877 31.084 217.643 30.3984 217.174 29.8828C216.711 29.3613 216.093 29.1006 215.319 29.1006C214.61 29.1006 214.054 29.2559 213.649 29.5664L213.219 29.918L211.918 29.584ZM224.829 31.2275H220.54V29.9004H224.829V31.2275ZM231.597 36H229.962V25.1631L226.684 26.3672V24.8906L231.342 23.1416H231.597V36ZM244.385 30.542C244.385 32.4463 244.06 33.8613 243.409 34.7871C242.759 35.7129 241.742 36.1758 240.359 36.1758C238.994 36.1758 237.983 35.7246 237.327 34.8223C236.671 33.9141 236.331 32.5605 236.308 30.7617V28.5908C236.308 26.71 236.633 25.3125 237.283 24.3984C237.934 23.4844 238.953 23.0273 240.342 23.0273C241.719 23.0273 242.732 23.4697 243.383 24.3545C244.033 25.2334 244.367 26.5928 244.385 28.4326V30.542ZM242.759 28.3184C242.759 26.9414 242.565 25.9395 242.179 25.3125C241.792 24.6797 241.18 24.3633 240.342 24.3633C239.51 24.3633 238.903 24.6768 238.522 25.3037C238.142 25.9307 237.945 26.8945 237.934 28.1953V30.7969C237.934 32.1797 238.133 33.2021 238.531 33.8643C238.936 34.5205 239.545 34.8486 240.359 34.8486C241.162 34.8486 241.757 34.5381 242.144 33.917C242.536 33.2959 242.741 32.3174 242.759 30.9814V28.3184ZM254.492 30.542C254.492 32.4463 254.167 33.8613 253.517 34.7871C252.866 35.7129 251.85 36.1758 250.467 36.1758C249.102 36.1758 248.091 35.7246 247.435 34.8223C246.778 33.9141 246.438 32.5605 246.415 30.7617V28.5908C246.415 26.71 246.74 25.3125 247.391 24.3984C248.041 23.4844 249.061 23.0273 250.449 23.0273C251.826 23.0273 252.84 23.4697 253.49 24.3545C254.141 25.2334 254.475 26.5928 254.492 28.4326V30.542ZM252.866 28.3184C252.866 26.9414 252.673 25.9395 252.286 25.3125C251.899 24.6797 251.287 24.3633 250.449 24.3633C249.617 24.3633 249.011 24.6768 248.63 25.3037C248.249 25.9307 248.053 26.8945 248.041 28.1953V30.7969C248.041 32.1797 248.24 33.2021 248.639 33.8643C249.043 34.5205 249.652 34.8486 250.467 34.8486C251.27 34.8486 251.864 34.5381 252.251 33.917C252.644 33.2959 252.849 32.3174 252.866 30.9814V28.3184ZM256.435 25.6641C256.435 24.8965 256.678 24.2637 257.164 23.7656C257.656 23.2676 258.286 23.0186 259.054 23.0186C259.833 23.0186 260.463 23.2705 260.943 23.7744C261.43 24.2725 261.673 24.9199 261.673 25.7168V26.3408C261.673 27.1143 261.427 27.7471 260.935 28.2393C260.448 28.7256 259.827 28.9688 259.071 28.9688C258.31 28.9688 257.68 28.7256 257.182 28.2393C256.684 27.7471 256.435 27.0938 256.435 26.2793V25.6641ZM257.647 26.3408C257.647 26.7979 257.776 27.1758 258.034 27.4746C258.292 27.7676 258.638 27.9141 259.071 27.9141C259.487 27.9141 259.821 27.7705 260.073 27.4834C260.331 27.1963 260.46 26.8037 260.46 26.3057V25.6641C260.46 25.207 260.334 24.8291 260.082 24.5303C259.83 24.2314 259.487 24.082 259.054 24.082C258.62 24.082 258.277 24.2314 258.025 24.5303C257.773 24.8291 257.647 25.2188 257.647 25.6992V26.3408ZM262.666 32.8623C262.666 32.0947 262.909 31.4648 263.396 30.9727C263.888 30.4746 264.518 30.2256 265.285 30.2256C266.053 30.2256 266.683 30.4717 267.175 30.9639C267.667 31.4561 267.913 32.1094 267.913 32.9238V33.5479C267.913 34.3154 267.667 34.9482 267.175 35.4463C266.688 35.9385 266.064 36.1846 265.303 36.1846C264.541 36.1846 263.911 35.9414 263.413 35.4551C262.915 34.9629 262.666 34.3096 262.666 33.4951V32.8623ZM263.879 33.5479C263.879 34.0107 264.008 34.3916 264.266 34.6904C264.523 34.9834 264.869 35.1299 265.303 35.1299C265.725 35.1299 266.062 34.9863 266.313 34.6992C266.565 34.4062 266.691 34.0107 266.691 33.5127V32.8623C266.691 32.3994 266.562 32.0215 266.305 31.7285C266.053 31.4355 265.713 31.2891 265.285 31.2891C264.869 31.2891 264.529 31.4355 264.266 31.7285C264.008 32.0156 263.879 32.4053 263.879 32.8975V33.5479ZM259.44 35.0332L258.518 34.4531L264.767 24.4512L265.689 25.0312L259.44 35.0332Z" fill="#EEEEEE"/>
<path d="M203.428 54.8105H204.649C205.417 54.7988 206.021 54.5967 206.46 54.2041C206.899 53.8115 207.119 53.2812 207.119 52.6133C207.119 51.1133 206.372 50.3633 204.878 50.3633C204.175 50.3633 203.612 50.5654 203.19 50.9697C202.774 51.3682 202.566 51.8984 202.566 52.5605H200.94C200.94 51.5469 201.31 50.7061 202.048 50.0381C202.792 49.3643 203.735 49.0273 204.878 49.0273C206.085 49.0273 207.031 49.3467 207.717 49.9854C208.402 50.624 208.745 51.5117 208.745 52.6484C208.745 53.2051 208.563 53.7441 208.2 54.2656C207.843 54.7871 207.354 55.1768 206.732 55.4346C207.436 55.6572 207.978 56.0264 208.358 56.542C208.745 57.0576 208.938 57.6875 208.938 58.4316C208.938 59.5801 208.563 60.4912 207.813 61.165C207.063 61.8389 206.088 62.1758 204.887 62.1758C203.686 62.1758 202.707 61.8506 201.951 61.2002C201.201 60.5498 200.826 59.6914 200.826 58.625H202.461C202.461 59.2988 202.681 59.8379 203.12 60.2422C203.56 60.6465 204.148 60.8486 204.887 60.8486C205.672 60.8486 206.272 60.6436 206.688 60.2334C207.104 59.8232 207.312 59.2344 207.312 58.4668C207.312 57.7227 207.084 57.1514 206.627 56.7529C206.17 56.3545 205.511 56.1494 204.649 56.1377H203.428V54.8105ZM211.373 61.1475C211.373 60.8662 211.455 60.6318 211.619 60.4443C211.789 60.2568 212.041 60.1631 212.375 60.1631C212.709 60.1631 212.961 60.2568 213.131 60.4443C213.307 60.6318 213.395 60.8662 213.395 61.1475C213.395 61.417 213.307 61.6426 213.131 61.8242C212.961 62.0059 212.709 62.0967 212.375 62.0967C212.041 62.0967 211.789 62.0059 211.619 61.8242C211.455 61.6426 211.373 61.417 211.373 61.1475ZM222.298 49.1943V50.5742H221.999C220.733 50.5977 219.726 50.9727 218.976 51.6992C218.226 52.4258 217.792 53.4482 217.675 54.7666C218.349 53.9932 219.269 53.6064 220.435 53.6064C221.548 53.6064 222.436 53.999 223.098 54.7842C223.766 55.5693 224.1 56.583 224.1 57.8252C224.1 59.1436 223.739 60.1982 223.019 60.9893C222.304 61.7803 221.343 62.1758 220.136 62.1758C218.911 62.1758 217.918 61.707 217.156 60.7695C216.395 59.8262 216.014 58.6133 216.014 57.1309V56.5068C216.014 54.1514 216.515 52.3525 217.517 51.1104C218.524 49.8623 220.021 49.2236 222.008 49.1943H222.298ZM220.162 54.96C219.605 54.96 219.093 55.127 218.624 55.4609C218.155 55.7949 217.83 56.2139 217.648 56.7178V57.3154C217.648 58.3701 217.886 59.2197 218.36 59.8643C218.835 60.5088 219.427 60.8311 220.136 60.8311C220.868 60.8311 221.442 60.5615 221.858 60.0225C222.28 59.4834 222.491 58.7773 222.491 57.9043C222.491 57.0254 222.277 56.3164 221.85 55.7773C221.428 55.2324 220.865 54.96 220.162 54.96ZM225.884 51.6641C225.884 50.8965 226.127 50.2637 226.613 49.7656C227.105 49.2676 227.735 49.0186 228.503 49.0186C229.282 49.0186 229.912 49.2705 230.393 49.7744C230.879 50.2725 231.122 50.9199 231.122 51.7168V52.3408C231.122 53.1143 230.876 53.7471 230.384 54.2393C229.897 54.7256 229.276 54.9688 228.521 54.9688C227.759 54.9688 227.129 54.7256 226.631 54.2393C226.133 53.7471 225.884 53.0938 225.884 52.2793V51.6641ZM227.097 52.3408C227.097 52.7979 227.226 53.1758 227.483 53.4746C227.741 53.7676 228.087 53.9141 228.521 53.9141C228.937 53.9141 229.271 53.7705 229.522 53.4834C229.78 53.1963 229.909 52.8037 229.909 52.3057V51.6641C229.909 51.207 229.783 50.8291 229.531 50.5303C229.279 50.2314 228.937 50.082 228.503 50.082C228.069 50.082 227.727 50.2314 227.475 50.5303C227.223 50.8291 227.097 51.2188 227.097 51.6992V52.3408ZM232.115 58.8623C232.115 58.0947 232.358 57.4648 232.845 56.9727C233.337 56.4746 233.967 56.2256 234.734 56.2256C235.502 56.2256 236.132 56.4717 236.624 56.9639C237.116 57.4561 237.362 58.1094 237.362 58.9238V59.5479C237.362 60.3154 237.116 60.9482 236.624 61.4463C236.138 61.9385 235.514 62.1846 234.752 62.1846C233.99 62.1846 233.36 61.9414 232.862 61.4551C232.364 60.9629 232.115 60.3096 232.115 59.4951V58.8623ZM233.328 59.5479C233.328 60.0107 233.457 60.3916 233.715 60.6904C233.973 60.9834 234.318 61.1299 234.752 61.1299C235.174 61.1299 235.511 60.9863 235.763 60.6992C236.015 60.4062 236.141 60.0107 236.141 59.5127V58.8623C236.141 58.3994 236.012 58.0215 235.754 57.7285C235.502 57.4355 235.162 57.2891 234.734 57.2891C234.318 57.2891 233.979 57.4355 233.715 57.7285C233.457 58.0156 233.328 58.4053 233.328 58.8975V59.5479ZM228.89 61.0332L227.967 60.4531L234.216 50.4512L235.139 51.0312L228.89 61.0332Z" fill="#EAEAEA"/>
<line y1="223.222" x2="319" y2="223.222" stroke="#AEAEAE" stroke-width="2"/>
<path d="M1.81055 212.584L2.46094 206.203H9.01758V207.706H3.84082L3.4541 211.195C4.08105 210.826 4.79297 210.642 5.58984 210.642C6.75586 210.642 7.68164 211.028 8.36719 211.802C9.05273 212.569 9.39551 213.609 9.39551 214.922C9.39551 216.24 9.03809 217.28 8.32324 218.042C7.61426 218.798 6.62109 219.176 5.34375 219.176C4.21289 219.176 3.29004 218.862 2.5752 218.235C1.86035 217.608 1.45312 216.741 1.35352 215.634H2.8916C2.99121 216.366 3.25195 216.92 3.67383 217.295C4.0957 217.664 4.65234 217.849 5.34375 217.849C6.09961 217.849 6.69141 217.591 7.11914 217.075C7.55273 216.56 7.76953 215.848 7.76953 214.939C7.76953 214.084 7.53516 213.398 7.06641 212.883C6.60352 212.361 5.98535 212.101 5.21191 212.101C4.50293 212.101 3.94629 212.256 3.54199 212.566L3.11133 212.918L1.81055 212.584ZM19.1953 213.542C19.1953 215.446 18.8701 216.861 18.2197 217.787C17.5693 218.713 16.5527 219.176 15.1699 219.176C13.8047 219.176 12.7939 218.725 12.1377 217.822C11.4814 216.914 11.1416 215.561 11.1182 213.762V211.591C11.1182 209.71 11.4434 208.312 12.0938 207.398C12.7441 206.484 13.7637 206.027 15.1523 206.027C16.5293 206.027 17.543 206.47 18.1934 207.354C18.8438 208.233 19.1777 209.593 19.1953 211.433V213.542ZM17.5693 211.318C17.5693 209.941 17.376 208.939 16.9893 208.312C16.6025 207.68 15.9902 207.363 15.1523 207.363C14.3203 207.363 13.7139 207.677 13.333 208.304C12.9521 208.931 12.7559 209.895 12.7441 211.195V213.797C12.7441 215.18 12.9434 216.202 13.3418 216.864C13.7461 217.521 14.3555 217.849 15.1699 217.849C15.9727 217.849 16.5674 217.538 16.9541 216.917C17.3467 216.296 17.5518 215.317 17.5693 213.981V211.318ZM24.8291 214.228H20.54V212.9H24.8291V214.228ZM34.5146 207.117L29.2148 219H27.5098L32.792 207.539H25.8662V206.203H34.5146V207.117ZM37.1074 212.584L37.7578 206.203H44.3145V207.706H39.1377L38.751 211.195C39.3779 210.826 40.0898 210.642 40.8867 210.642C42.0527 210.642 42.9785 211.028 43.6641 211.802C44.3496 212.569 44.6924 213.609 44.6924 214.922C44.6924 216.24 44.335 217.28 43.6201 218.042C42.9111 218.798 41.918 219.176 40.6406 219.176C39.5098 219.176 38.5869 218.862 37.8721 218.235C37.1572 217.608 36.75 216.741 36.6504 215.634H38.1885C38.2881 216.366 38.5488 216.92 38.9707 217.295C39.3926 217.664 39.9492 217.849 40.6406 217.849C41.3965 217.849 41.9883 217.591 42.416 217.075C42.8496 216.56 43.0664 215.848 43.0664 214.939C43.0664 214.084 42.832 213.398 42.3633 212.883C41.9004 212.361 41.2822 212.101 40.5088 212.101C39.7998 212.101 39.2432 212.256 38.8389 212.566L38.4082 212.918L37.1074 212.584ZM46.3271 208.664C46.3271 207.896 46.5703 207.264 47.0566 206.766C47.5488 206.268 48.1787 206.019 48.9463 206.019C49.7256 206.019 50.3555 206.271 50.8359 206.774C51.3223 207.272 51.5654 207.92 51.5654 208.717V209.341C51.5654 210.114 51.3193 210.747 50.8271 211.239C50.3408 211.726 49.7197 211.969 48.9639 211.969C48.2021 211.969 47.5723 211.726 47.0742 211.239C46.5762 210.747 46.3271 210.094 46.3271 209.279V208.664ZM47.54 209.341C47.54 209.798 47.6689 210.176 47.9268 210.475C48.1846 210.768 48.5303 210.914 48.9639 210.914C49.3799 210.914 49.7139 210.771 49.9658 210.483C50.2236 210.196 50.3525 209.804 50.3525 209.306V208.664C50.3525 208.207 50.2266 207.829 49.9746 207.53C49.7227 207.231 49.3799 207.082 48.9463 207.082C48.5127 207.082 48.1699 207.231 47.918 207.53C47.666 207.829 47.54 208.219 47.54 208.699V209.341ZM52.5586 215.862C52.5586 215.095 52.8018 214.465 53.2881 213.973C53.7803 213.475 54.4102 213.226 55.1777 213.226C55.9453 213.226 56.5752 213.472 57.0674 213.964C57.5596 214.456 57.8057 215.109 57.8057 215.924V216.548C57.8057 217.315 57.5596 217.948 57.0674 218.446C56.5811 218.938 55.957 219.185 55.1953 219.185C54.4336 219.185 53.8037 218.941 53.3057 218.455C52.8076 217.963 52.5586 217.31 52.5586 216.495V215.862ZM53.7715 216.548C53.7715 217.011 53.9004 217.392 54.1582 217.69C54.416 217.983 54.7617 218.13 55.1953 218.13C55.6172 218.13 55.9541 217.986 56.2061 217.699C56.458 217.406 56.584 217.011 56.584 216.513V215.862C56.584 215.399 56.4551 215.021 56.1973 214.729C55.9453 214.436 55.6055 214.289 55.1777 214.289C54.7617 214.289 54.4219 214.436 54.1582 214.729C53.9004 215.016 53.7715 215.405 53.7715 215.897V216.548ZM49.333 218.033L48.4102 217.453L54.6592 207.451L55.582 208.031L49.333 218.033Z" fill="#EEEEEE"/>
<path d="M7.29492 239.375C6.95508 239.779 6.54785 240.104 6.07324 240.351C5.60449 240.597 5.08887 240.72 4.52637 240.72C3.78809 240.72 3.14355 240.538 2.59277 240.175C2.04785 239.812 1.62598 239.302 1.32715 238.646C1.02832 237.983 0.878906 237.254 0.878906 236.457C0.878906 235.602 1.04004 234.831 1.3623 234.146C1.69043 233.46 2.15332 232.936 2.75098 232.572C3.34863 232.209 4.0459 232.027 4.84277 232.027C6.1084 232.027 7.10449 232.502 7.83105 233.451C8.56348 234.395 8.92969 235.684 8.92969 237.318V237.793C8.92969 240.283 8.4375 242.103 7.45312 243.251C6.46875 244.394 4.9834 244.979 2.99707 245.009H2.68066V243.638H3.02344C4.36523 243.614 5.39648 243.266 6.11719 242.592C6.83789 241.912 7.23047 240.84 7.29492 239.375ZM4.79004 239.375C5.33496 239.375 5.83594 239.208 6.29297 238.874C6.75586 238.54 7.09277 238.127 7.30371 237.635V236.984C7.30371 235.918 7.07227 235.051 6.60938 234.383C6.14648 233.715 5.56055 233.381 4.85156 233.381C4.13672 233.381 3.5625 233.656 3.12891 234.207C2.69531 234.752 2.47852 235.473 2.47852 236.369C2.47852 237.242 2.68652 237.963 3.10254 238.531C3.52441 239.094 4.08691 239.375 4.79004 239.375ZM17.5518 232.194V233.574H17.2529C15.9873 233.598 14.9795 233.973 14.2295 234.699C13.4795 235.426 13.0459 236.448 12.9287 237.767C13.6025 236.993 14.5225 236.606 15.6885 236.606C16.8018 236.606 17.6895 236.999 18.3516 237.784C19.0195 238.569 19.3535 239.583 19.3535 240.825C19.3535 242.144 18.9932 243.198 18.2725 243.989C17.5576 244.78 16.5967 245.176 15.3896 245.176C14.165 245.176 13.1719 244.707 12.4102 243.77C11.6484 242.826 11.2676 241.613 11.2676 240.131V239.507C11.2676 237.151 11.7686 235.353 12.7705 234.11C13.7783 232.862 15.2754 232.224 17.2617 232.194H17.5518ZM15.416 237.96C14.8594 237.96 14.3467 238.127 13.8779 238.461C13.4092 238.795 13.084 239.214 12.9023 239.718V240.315C12.9023 241.37 13.1396 242.22 13.6143 242.864C14.0889 243.509 14.6807 243.831 15.3896 243.831C16.1221 243.831 16.6963 243.562 17.1123 243.022C17.5342 242.483 17.7451 241.777 17.7451 240.904C17.7451 240.025 17.5312 239.316 17.1035 238.777C16.6816 238.232 16.1191 237.96 15.416 237.96ZM21.4805 244.147C21.4805 243.866 21.5625 243.632 21.7266 243.444C21.8965 243.257 22.1484 243.163 22.4824 243.163C22.8164 243.163 23.0684 243.257 23.2383 243.444C23.4141 243.632 23.502 243.866 23.502 244.147C23.502 244.417 23.4141 244.643 23.2383 244.824C23.0684 245.006 22.8164 245.097 22.4824 245.097C22.1484 245.097 21.8965 245.006 21.7266 244.824C21.5625 244.643 21.4805 244.417 21.4805 244.147ZM32.8887 240.702H34.6641V242.029H32.8887V245H31.2539V242.029H25.4268V241.071L31.1572 232.203H32.8887V240.702ZM27.2725 240.702H31.2539V234.427L31.0605 234.778L27.2725 240.702ZM35.9912 234.664C35.9912 233.896 36.2344 233.264 36.7207 232.766C37.2129 232.268 37.8428 232.019 38.6104 232.019C39.3896 232.019 40.0195 232.271 40.5 232.774C40.9863 233.272 41.2295 233.92 41.2295 234.717V235.341C41.2295 236.114 40.9834 236.747 40.4912 237.239C40.0049 237.726 39.3838 237.969 38.6279 237.969C37.8662 237.969 37.2363 237.726 36.7383 237.239C36.2402 236.747 35.9912 236.094 35.9912 235.279V234.664ZM37.2041 235.341C37.2041 235.798 37.333 236.176 37.5908 236.475C37.8486 236.768 38.1943 236.914 38.6279 236.914C39.0439 236.914 39.3779 236.771 39.6299 236.483C39.8877 236.196 40.0166 235.804 40.0166 235.306V234.664C40.0166 234.207 39.8906 233.829 39.6387 233.53C39.3867 233.231 39.0439 233.082 38.6104 233.082C38.1768 233.082 37.834 233.231 37.582 233.53C37.3301 233.829 37.2041 234.219 37.2041 234.699V235.341ZM42.2227 241.862C42.2227 241.095 42.4658 240.465 42.9521 239.973C43.4443 239.475 44.0742 239.226 44.8418 239.226C45.6094 239.226 46.2393 239.472 46.7314 239.964C47.2236 240.456 47.4697 241.109 47.4697 241.924V242.548C47.4697 243.315 47.2236 243.948 46.7314 244.446C46.2451 244.938 45.6211 245.185 44.8594 245.185C44.0977 245.185 43.4678 244.941 42.9697 244.455C42.4717 243.963 42.2227 243.31 42.2227 242.495V241.862ZM43.4355 242.548C43.4355 243.011 43.5645 243.392 43.8223 243.69C44.0801 243.983 44.4258 244.13 44.8594 244.13C45.2812 244.13 45.6182 243.986 45.8701 243.699C46.1221 243.406 46.248 243.011 46.248 242.513V241.862C46.248 241.399 46.1191 241.021 45.8613 240.729C45.6094 240.436 45.2695 240.289 44.8418 240.289C44.4258 240.289 44.0859 240.436 43.8223 240.729C43.5645 241.016 43.4355 241.405 43.4355 241.897V242.548ZM38.9971 244.033L38.0742 243.453L44.3232 233.451L45.2461 234.031L38.9971 244.033Z" fill="#EAEAEA"/>
<line x1="718" y1="513.222" x2="1037" y2="513.222" stroke="#AEAEAE" stroke-width="2"/>
<path d="M987.861 509H979.476V507.831L983.905 502.909C984.562 502.165 985.013 501.562 985.259 501.099C985.511 500.63 985.637 500.146 985.637 499.648C985.637 498.98 985.435 498.433 985.03 498.005C984.626 497.577 984.087 497.363 983.413 497.363C982.605 497.363 981.975 497.595 981.524 498.058C981.078 498.515 980.856 499.153 980.856 499.974H979.23C979.23 498.796 979.608 497.844 980.363 497.117C981.125 496.391 982.142 496.027 983.413 496.027C984.603 496.027 985.543 496.341 986.235 496.968C986.926 497.589 987.272 498.418 987.272 499.455C987.272 500.715 986.469 502.215 984.863 503.955L981.436 507.673H987.861V509ZM990.33 502.584L990.981 496.203H997.537V497.706H992.361L991.974 501.195C992.601 500.826 993.313 500.642 994.11 500.642C995.276 500.642 996.201 501.028 996.887 501.802C997.572 502.569 997.915 503.609 997.915 504.922C997.915 506.24 997.558 507.28 996.843 508.042C996.134 508.798 995.141 509.176 993.863 509.176C992.733 509.176 991.81 508.862 991.095 508.235C990.38 507.608 989.973 506.741 989.873 505.634H991.411C991.511 506.366 991.772 506.92 992.194 507.295C992.615 507.664 993.172 507.849 993.863 507.849C994.619 507.849 995.211 507.591 995.639 507.075C996.072 506.56 996.289 505.848 996.289 504.939C996.289 504.084 996.055 503.398 995.586 502.883C995.123 502.361 994.505 502.101 993.732 502.101C993.023 502.101 992.466 502.256 992.062 502.566L991.631 502.918L990.33 502.584ZM1003.24 504.228H998.952V502.9H1003.24V504.228ZM1005.41 502.584L1006.06 496.203H1012.62V497.706H1007.44L1007.06 501.195C1007.68 500.826 1008.39 500.642 1009.19 500.642C1010.36 500.642 1011.28 501.028 1011.97 501.802C1012.65 502.569 1013 503.609 1013 504.922C1013 506.24 1012.64 507.28 1011.92 508.042C1011.22 508.798 1010.22 509.176 1008.95 509.176C1007.81 509.176 1006.89 508.862 1006.18 508.235C1005.46 507.608 1005.05 506.741 1004.96 505.634H1006.49C1006.59 506.366 1006.85 506.92 1007.28 507.295C1007.7 507.664 1008.25 507.849 1008.95 507.849C1009.7 507.849 1010.29 507.591 1010.72 507.075C1011.15 506.56 1011.37 505.848 1011.37 504.939C1011.37 504.084 1011.14 503.398 1010.67 502.883C1010.21 502.361 1009.59 502.101 1008.81 502.101C1008.1 502.101 1007.55 502.256 1007.14 502.566L1006.71 502.918L1005.41 502.584ZM1022.8 503.542C1022.8 505.446 1022.47 506.861 1021.82 507.787C1021.17 508.713 1020.15 509.176 1018.77 509.176C1017.41 509.176 1016.4 508.725 1015.74 507.822C1015.08 506.914 1014.74 505.561 1014.72 503.762V501.591C1014.72 499.71 1015.05 498.312 1015.7 497.398C1016.35 496.484 1017.37 496.027 1018.75 496.027C1020.13 496.027 1021.14 496.47 1021.8 497.354C1022.45 498.233 1022.78 499.593 1022.8 501.433V503.542ZM1021.17 501.318C1021.17 499.941 1020.98 498.939 1020.59 498.312C1020.2 497.68 1019.59 497.363 1018.75 497.363C1017.92 497.363 1017.32 497.677 1016.93 498.304C1016.55 498.931 1016.36 499.895 1016.35 501.195V503.797C1016.35 505.18 1016.55 506.202 1016.94 506.864C1017.35 507.521 1017.96 507.849 1018.77 507.849C1019.57 507.849 1020.17 507.538 1020.56 506.917C1020.95 506.296 1021.15 505.317 1021.17 503.981V501.318ZM1024.74 498.664C1024.74 497.896 1024.98 497.264 1025.47 496.766C1025.96 496.268 1026.59 496.019 1027.36 496.019C1028.14 496.019 1028.77 496.271 1029.25 496.774C1029.73 497.272 1029.98 497.92 1029.98 498.717V499.341C1029.98 500.114 1029.73 500.747 1029.24 501.239C1028.75 501.726 1028.13 501.969 1027.38 501.969C1026.61 501.969 1025.98 501.726 1025.49 501.239C1024.99 500.747 1024.74 500.094 1024.74 499.279V498.664ZM1025.95 499.341C1025.95 499.798 1026.08 500.176 1026.34 500.475C1026.6 500.768 1026.94 500.914 1027.38 500.914C1027.79 500.914 1028.13 500.771 1028.38 500.483C1028.64 500.196 1028.76 499.804 1028.76 499.306V498.664C1028.76 498.207 1028.64 497.829 1028.39 497.53C1028.13 497.231 1027.79 497.082 1027.36 497.082C1026.92 497.082 1026.58 497.231 1026.33 497.53C1026.08 497.829 1025.95 498.219 1025.95 498.699V499.341ZM1030.97 505.862C1030.97 505.095 1031.21 504.465 1031.7 503.973C1032.19 503.475 1032.82 503.226 1033.59 503.226C1034.36 503.226 1034.99 503.472 1035.48 503.964C1035.97 504.456 1036.22 505.109 1036.22 505.924V506.548C1036.22 507.315 1035.97 507.948 1035.48 508.446C1034.99 508.938 1034.37 509.185 1033.61 509.185C1032.85 509.185 1032.22 508.941 1031.72 508.455C1031.22 507.963 1030.97 507.31 1030.97 506.495V505.862ZM1032.18 506.548C1032.18 507.011 1032.31 507.392 1032.57 507.69C1032.83 507.983 1033.17 508.13 1033.61 508.13C1034.03 508.13 1034.37 507.986 1034.62 507.699C1034.87 507.406 1035 507.011 1035 506.513V505.862C1035 505.399 1034.87 505.021 1034.61 504.729C1034.36 504.436 1034.02 504.289 1033.59 504.289C1033.17 504.289 1032.83 504.436 1032.57 504.729C1032.31 505.016 1032.18 505.405 1032.18 505.897V506.548ZM1027.75 508.033L1026.82 507.453L1033.07 497.451L1033.99 498.031L1027.75 508.033Z" fill="#EEEEEE"/>
<path d="M996.193 523.194V524.574H995.894C994.628 524.598 993.62 524.973 992.87 525.699C992.12 526.426 991.687 527.448 991.57 528.767C992.243 527.993 993.163 527.606 994.329 527.606C995.443 527.606 996.33 527.999 996.992 528.784C997.66 529.569 997.994 530.583 997.994 531.825C997.994 533.144 997.634 534.198 996.913 534.989C996.198 535.78 995.237 536.176 994.03 536.176C992.806 536.176 991.813 535.707 991.051 534.77C990.289 533.826 989.908 532.613 989.908 531.131V530.507C989.908 528.151 990.409 526.353 991.411 525.11C992.419 523.862 993.916 523.224 995.903 523.194H996.193ZM994.057 528.96C993.5 528.96 992.987 529.127 992.519 529.461C992.05 529.795 991.725 530.214 991.543 530.718V531.315C991.543 532.37 991.78 533.22 992.255 533.864C992.73 534.509 993.321 534.831 994.03 534.831C994.763 534.831 995.337 534.562 995.753 534.022C996.175 533.483 996.386 532.777 996.386 531.904C996.386 531.025 996.172 530.316 995.744 529.777C995.322 529.232 994.76 528.96 994.057 528.96ZM1007.94 530.542C1007.94 532.446 1007.62 533.861 1006.97 534.787C1006.32 535.713 1005.3 536.176 1003.92 536.176C1002.55 536.176 1001.54 535.725 1000.89 534.822C1000.23 533.914 999.89 532.561 999.866 530.762V528.591C999.866 526.71 1000.19 525.312 1000.84 524.398C1001.49 523.484 1002.51 523.027 1003.9 523.027C1005.28 523.027 1006.29 523.47 1006.94 524.354C1007.59 525.233 1007.93 526.593 1007.94 528.433V530.542ZM1006.32 528.318C1006.32 526.941 1006.12 525.939 1005.74 525.312C1005.35 524.68 1004.74 524.363 1003.9 524.363C1003.07 524.363 1002.46 524.677 1002.08 525.304C1001.7 525.931 1001.5 526.895 1001.49 528.195V530.797C1001.49 532.18 1001.69 533.202 1002.09 533.864C1002.49 534.521 1003.1 534.849 1003.92 534.849C1004.72 534.849 1005.32 534.538 1005.7 533.917C1006.09 533.296 1006.3 532.317 1006.32 530.981V528.318ZM1010.23 535.147C1010.23 534.866 1010.31 534.632 1010.47 534.444C1010.64 534.257 1010.9 534.163 1011.23 534.163C1011.56 534.163 1011.82 534.257 1011.99 534.444C1012.16 534.632 1012.25 534.866 1012.25 535.147C1012.25 535.417 1012.16 535.643 1011.99 535.824C1011.82 536.006 1011.56 536.097 1011.23 536.097C1010.9 536.097 1010.64 536.006 1010.47 535.824C1010.31 535.643 1010.23 535.417 1010.23 535.147ZM1023.03 524.117L1017.73 536H1016.03L1021.31 524.539H1014.39V523.203H1023.03V524.117ZM1024.74 525.664C1024.74 524.896 1024.98 524.264 1025.47 523.766C1025.96 523.268 1026.59 523.019 1027.36 523.019C1028.14 523.019 1028.77 523.271 1029.25 523.774C1029.73 524.272 1029.98 524.92 1029.98 525.717V526.341C1029.98 527.114 1029.73 527.747 1029.24 528.239C1028.75 528.726 1028.13 528.969 1027.38 528.969C1026.61 528.969 1025.98 528.726 1025.49 528.239C1024.99 527.747 1024.74 527.094 1024.74 526.279V525.664ZM1025.95 526.341C1025.95 526.798 1026.08 527.176 1026.34 527.475C1026.6 527.768 1026.94 527.914 1027.38 527.914C1027.79 527.914 1028.13 527.771 1028.38 527.483C1028.64 527.196 1028.76 526.804 1028.76 526.306V525.664C1028.76 525.207 1028.64 524.829 1028.39 524.53C1028.13 524.231 1027.79 524.082 1027.36 524.082C1026.92 524.082 1026.58 524.231 1026.33 524.53C1026.08 524.829 1025.95 525.219 1025.95 525.699V526.341ZM1030.97 532.862C1030.97 532.095 1031.21 531.465 1031.7 530.973C1032.19 530.475 1032.82 530.226 1033.59 530.226C1034.36 530.226 1034.99 530.472 1035.48 530.964C1035.97 531.456 1036.22 532.109 1036.22 532.924V533.548C1036.22 534.315 1035.97 534.948 1035.48 535.446C1034.99 535.938 1034.37 536.185 1033.61 536.185C1032.85 536.185 1032.22 535.941 1031.72 535.455C1031.22 534.963 1030.97 534.31 1030.97 533.495V532.862ZM1032.18 533.548C1032.18 534.011 1032.31 534.392 1032.57 534.69C1032.83 534.983 1033.17 535.13 1033.61 535.13C1034.03 535.13 1034.37 534.986 1034.62 534.699C1034.87 534.406 1035 534.011 1035 533.513V532.862C1035 532.399 1034.87 532.021 1034.61 531.729C1034.36 531.436 1034.02 531.289 1033.59 531.289C1033.17 531.289 1032.83 531.436 1032.57 531.729C1032.31 532.016 1032.18 532.405 1032.18 532.897V533.548ZM1027.75 535.033L1026.82 534.453L1033.07 524.451L1033.99 525.031L1027.75 535.033Z" fill="#EAEAEA"/>
</svg>
