<svg width="1037" height="600" viewBox="0 0 1037 600" fill="none" xmlns="http://www.w3.org/2000/svg">
<mask id="path-1-inside-1" fill="white">
<path d="M865 300C865 465.685 730.685 600 565 600C399.315 600 265 465.685 265 300C265 134.315 399.315 0 565 0C730.685 0 865 134.315 865 300ZM340 300C340 424.264 440.736 525 565 525C689.264 525 790 424.264 790 300C790 175.736 689.264 75 565 75C440.736 75 340 175.736 340 300Z"/>
</mask>
<path d="M865 300C865 465.685 730.685 600 565 600C399.315 600 265 465.685 265 300C265 134.315 399.315 0 565 0C730.685 0 865 134.315 865 300ZM340 300C340 424.264 440.736 525 565 525C689.264 525 790 424.264 790 300C790 175.736 689.264 75 565 75C440.736 75 340 175.736 340 300Z" fill="#C9D6DF" stroke="#DDDDDD" stroke-width="4" stroke-linecap="round" mask="url(#path-1-inside-1)"/>
<mask id="path-2-inside-2" fill="white">
<path d="M565 0C638.702 8.78893e-07 709.826 27.131 764.804 76.2176C819.781 125.304 854.766 192.911 863.083 266.143C871.401 339.375 852.47 413.106 809.902 473.272C767.333 533.438 704.106 575.829 632.281 592.358C560.456 608.887 485.06 598.398 420.474 562.892C355.888 527.386 306.633 469.347 282.103 399.846C257.573 330.345 259.486 254.247 287.477 186.066C315.467 117.886 367.577 62.395 433.865 30.1785L466.649 97.6339C416.933 121.796 377.851 163.414 356.858 214.55C335.865 265.685 334.43 322.759 352.827 374.885C371.224 427.01 408.166 470.539 456.606 497.169C505.045 523.799 561.592 531.666 615.461 519.269C669.33 506.872 716.75 475.078 748.676 429.954C780.603 384.829 794.801 329.531 788.563 274.607C782.324 219.684 756.086 168.978 714.853 132.163C673.619 95.3482 620.277 75 565 75L565 0Z"/>
</mask>
<path d="M565 0C638.702 8.78893e-07 709.826 27.131 764.804 76.2176C819.781 125.304 854.766 192.911 863.083 266.143C871.401 339.375 852.47 413.106 809.902 473.272C767.333 533.438 704.106 575.829 632.281 592.358C560.456 608.887 485.06 598.398 420.474 562.892C355.888 527.386 306.633 469.347 282.103 399.846C257.573 330.345 259.486 254.247 287.477 186.066C315.467 117.886 367.577 62.395 433.865 30.1785L466.649 97.6339C416.933 121.796 377.851 163.414 356.858 214.55C335.865 265.685 334.43 322.759 352.827 374.885C371.224 427.01 408.166 470.539 456.606 497.169C505.045 523.799 561.592 531.666 615.461 519.269C669.33 506.872 716.75 475.078 748.676 429.954C780.603 384.829 794.801 329.531 788.563 274.607C782.324 219.684 756.086 168.978 714.853 132.163C673.619 95.3482 620.277 75 565 75L565 0Z" fill="#52616B" stroke="#DDDDDD" stroke-width="4" stroke-linecap="round" mask="url(#path-2-inside-2)"/>
<mask id="path-3-inside-3" fill="white">
<path d="M565 0C618.567 6.38778e-07 671.157 14.3426 717.307 41.5378C763.457 68.7331 801.483 107.789 827.437 154.649C853.39 201.508 866.323 254.462 864.893 308.01C863.463 361.558 847.721 413.746 819.303 459.153C790.886 504.561 750.828 541.531 703.292 566.224C655.756 590.917 602.476 602.432 548.985 599.572C495.495 596.713 443.746 579.583 399.113 549.963C354.481 520.343 318.593 479.313 295.178 431.135L362.634 398.351C380.195 434.485 407.111 465.257 440.585 487.472C474.059 509.687 512.871 522.535 552.989 524.679C593.107 526.824 633.067 518.188 668.719 499.668C704.371 481.148 734.414 453.421 755.727 419.365C777.041 385.31 788.847 346.168 789.92 306.008C790.992 265.847 781.293 226.131 761.828 190.987C742.363 155.842 713.842 126.55 679.23 106.153C644.617 85.7569 605.175 75 565 75L565 0Z"/>
</mask>
<path d="M565 0C618.567 6.38778e-07 671.157 14.3426 717.307 41.5378C763.457 68.7331 801.483 107.789 827.437 154.649C853.39 201.508 866.323 254.462 864.893 308.01C863.463 361.558 847.721 413.746 819.303 459.153C790.886 504.561 750.828 541.531 703.292 566.224C655.756 590.917 602.476 602.432 548.985 599.572C495.495 596.713 443.746 579.583 399.113 549.963C354.481 520.343 318.593 479.313 295.178 431.135L362.634 398.351C380.195 434.485 407.111 465.257 440.585 487.472C474.059 509.687 512.871 522.535 552.989 524.679C593.107 526.824 633.067 518.188 668.719 499.668C704.371 481.148 734.414 453.421 755.727 419.365C777.041 385.31 788.847 346.168 789.92 306.008C790.992 265.847 781.293 226.131 761.828 190.987C742.363 155.842 713.842 126.55 679.23 106.153C644.617 85.7569 605.175 75 565 75L565 0Z" fill="#001B36" stroke="#DDDDDD" stroke-width="4" stroke-linecap="round" mask="url(#path-3-inside-3)"/>
<mask id="path-4-inside-4" fill="white">
<path d="M565 0C632.87 8.09346e-07 698.735 23.0139 751.836 65.2828C804.937 107.552 842.137 166.577 857.358 232.719L784.269 249.539C772.853 199.933 744.953 155.664 705.127 123.962C665.301 92.2604 615.903 75 565 75L565 0Z"/>
</mask>
<path d="M565 0C632.87 8.09346e-07 698.735 23.0139 751.836 65.2828C804.937 107.552 842.137 166.577 857.358 232.719L784.269 249.539C772.853 199.933 744.953 155.664 705.127 123.962C665.301 92.2604 615.903 75 565 75L565 0Z" fill="#0084F8" stroke="#DDDDDD" stroke-width="4" stroke-linecap="round" mask="url(#path-4-inside-4)"/>
<line x1="718" y1="100.222" x2="1037" y2="100.222" stroke="#AEAEAE" stroke-width="2"/>
<path d="M997.607 90.542C997.607 92.4463 997.282 93.8613 996.632 94.7871C995.981 95.7129 994.965 96.1758 993.582 96.1758C992.217 96.1758 991.206 95.7246 990.55 94.8223C989.894 93.9141 989.554 92.5605 989.53 90.7617V88.5908C989.53 86.71 989.855 85.3125 990.506 84.3984C991.156 83.4844 992.176 83.0273 993.564 83.0273C994.941 83.0273 995.955 83.4697 996.605 84.3545C997.256 85.2334 997.59 86.5928 997.607 88.4326V90.542ZM995.981 88.3184C995.981 86.9414 995.788 85.9395 995.401 85.3125C995.015 84.6797 994.402 84.3633 993.564 84.3633C992.732 84.3633 992.126 84.6768 991.745 85.3037C991.364 85.9307 991.168 86.8945 991.156 88.1953V90.7969C991.156 92.1797 991.355 93.2021 991.754 93.8643C992.158 94.5205 992.768 94.8486 993.582 94.8486C994.385 94.8486 994.979 94.5381 995.366 93.917C995.759 93.2959 995.964 92.3174 995.981 90.9814V88.3184ZM1003.24 91.2275H998.952V89.9004H1003.24V91.2275ZM1013.05 96H1004.67V94.8311L1009.09 89.9092C1009.75 89.165 1010.2 88.5615 1010.45 88.0986C1010.7 87.6299 1010.83 87.1465 1010.83 86.6484C1010.83 85.9805 1010.62 85.4326 1010.22 85.0049C1009.82 84.5771 1009.28 84.3633 1008.6 84.3633C1007.79 84.3633 1007.16 84.5947 1006.71 85.0576C1006.27 85.5146 1006.04 86.1533 1006.04 86.9736H1004.42C1004.42 85.7959 1004.8 84.8438 1005.55 84.1172C1006.31 83.3906 1007.33 83.0273 1008.6 83.0273C1009.79 83.0273 1010.73 83.3408 1011.42 83.9678C1012.12 84.5889 1012.46 85.418 1012.46 86.4551C1012.46 87.7148 1011.66 89.2148 1010.05 90.9551L1006.62 94.6729H1013.05V96ZM1015.52 89.584L1016.17 83.2031H1022.73V84.7061H1017.55L1017.16 88.1953C1017.79 87.8262 1018.5 87.6416 1019.3 87.6416C1020.46 87.6416 1021.39 88.0283 1022.08 88.8018C1022.76 89.5693 1023.1 90.6094 1023.1 91.9219C1023.1 93.2402 1022.75 94.2803 1022.03 95.042C1021.32 95.7979 1020.33 96.1758 1019.05 96.1758C1017.92 96.1758 1017 95.8623 1016.28 95.2354C1015.57 94.6084 1015.16 93.7412 1015.06 92.6338H1016.6C1016.7 93.3662 1016.96 93.9199 1017.38 94.2949C1017.8 94.6641 1018.36 94.8486 1019.05 94.8486C1019.81 94.8486 1020.4 94.5908 1020.83 94.0752C1021.26 93.5596 1021.48 92.8477 1021.48 91.9395C1021.48 91.084 1021.24 90.3984 1020.78 89.8828C1020.31 89.3613 1019.69 89.1006 1018.92 89.1006C1018.21 89.1006 1017.66 89.2559 1017.25 89.5664L1016.82 89.918L1015.52 89.584ZM1024.74 85.6641C1024.74 84.8965 1024.98 84.2637 1025.47 83.7656C1025.96 83.2676 1026.59 83.0186 1027.36 83.0186C1028.14 83.0186 1028.77 83.2705 1029.25 83.7744C1029.73 84.2725 1029.98 84.9199 1029.98 85.7168V86.3408C1029.98 87.1143 1029.73 87.7471 1029.24 88.2393C1028.75 88.7256 1028.13 88.9688 1027.38 88.9688C1026.61 88.9688 1025.98 88.7256 1025.49 88.2393C1024.99 87.7471 1024.74 87.0938 1024.74 86.2793V85.6641ZM1025.95 86.3408C1025.95 86.7979 1026.08 87.1758 1026.34 87.4746C1026.6 87.7676 1026.94 87.9141 1027.38 87.9141C1027.79 87.9141 1028.13 87.7705 1028.38 87.4834C1028.64 87.1963 1028.76 86.8037 1028.76 86.3057V85.6641C1028.76 85.207 1028.64 84.8291 1028.39 84.5303C1028.13 84.2314 1027.79 84.082 1027.36 84.082C1026.92 84.082 1026.58 84.2314 1026.33 84.5303C1026.08 84.8291 1025.95 85.2188 1025.95 85.6992V86.3408ZM1030.97 92.8623C1030.97 92.0947 1031.21 91.4648 1031.7 90.9727C1032.19 90.4746 1032.82 90.2256 1033.59 90.2256C1034.36 90.2256 1034.99 90.4717 1035.48 90.9639C1035.97 91.4561 1036.22 92.1094 1036.22 92.9238V93.5479C1036.22 94.3154 1035.97 94.9482 1035.48 95.4463C1034.99 95.9385 1034.37 96.1846 1033.61 96.1846C1032.85 96.1846 1032.22 95.9414 1031.72 95.4551C1031.22 94.9629 1030.97 94.3096 1030.97 93.4951V92.8623ZM1032.18 93.5479C1032.18 94.0107 1032.31 94.3916 1032.57 94.6904C1032.83 94.9834 1033.17 95.1299 1033.61 95.1299C1034.03 95.1299 1034.37 94.9863 1034.62 94.6992C1034.87 94.4062 1035 94.0107 1035 93.5127V92.8623C1035 92.3994 1034.87 92.0215 1034.61 91.7285C1034.36 91.4355 1034.02 91.2891 1033.59 91.2891C1033.17 91.2891 1032.83 91.4355 1032.57 91.7285C1032.31 92.0156 1032.18 92.4053 1032.18 92.8975V93.5479ZM1027.75 95.0332L1026.82 94.4531L1033.07 84.4512L1033.99 85.0312L1027.75 95.0332Z" fill="#EEEEEE"/>
<path d="M998.196 123H989.812V121.831L994.241 116.909C994.897 116.165 995.349 115.562 995.595 115.099C995.847 114.63 995.973 114.146 995.973 113.648C995.973 112.98 995.771 112.433 995.366 112.005C994.962 111.577 994.423 111.363 993.749 111.363C992.94 111.363 992.311 111.595 991.859 112.058C991.414 112.515 991.191 113.153 991.191 113.974H989.565C989.565 112.796 989.943 111.844 990.699 111.117C991.461 110.391 992.478 110.027 993.749 110.027C994.938 110.027 995.879 110.341 996.57 110.968C997.262 111.589 997.607 112.418 997.607 113.455C997.607 114.715 996.805 116.215 995.199 117.955L991.771 121.673H998.196V123ZM1005.26 123H1003.63V112.163L1000.35 113.367V111.891L1005.01 110.142H1005.26V123ZM1010.23 122.147C1010.23 121.866 1010.31 121.632 1010.47 121.444C1010.64 121.257 1010.9 121.163 1011.23 121.163C1011.56 121.163 1011.82 121.257 1011.99 121.444C1012.16 121.632 1012.25 121.866 1012.25 122.147C1012.25 122.417 1012.16 122.643 1011.99 122.824C1011.82 123.006 1011.56 123.097 1011.23 123.097C1010.9 123.097 1010.64 123.006 1010.47 122.824C1010.31 122.643 1010.23 122.417 1010.23 122.147ZM1021.64 118.702H1023.41V120.029H1021.64V123H1020V120.029H1014.17V119.071L1019.91 110.203H1021.64V118.702ZM1016.02 118.702H1020V112.427L1019.81 112.778L1016.02 118.702ZM1024.74 112.664C1024.74 111.896 1024.98 111.264 1025.47 110.766C1025.96 110.268 1026.59 110.019 1027.36 110.019C1028.14 110.019 1028.77 110.271 1029.25 110.774C1029.73 111.272 1029.98 111.92 1029.98 112.717V113.341C1029.98 114.114 1029.73 114.747 1029.24 115.239C1028.75 115.726 1028.13 115.969 1027.38 115.969C1026.61 115.969 1025.98 115.726 1025.49 115.239C1024.99 114.747 1024.74 114.094 1024.74 113.279V112.664ZM1025.95 113.341C1025.95 113.798 1026.08 114.176 1026.34 114.475C1026.6 114.768 1026.94 114.914 1027.38 114.914C1027.79 114.914 1028.13 114.771 1028.38 114.483C1028.64 114.196 1028.76 113.804 1028.76 113.306V112.664C1028.76 112.207 1028.64 111.829 1028.39 111.53C1028.13 111.231 1027.79 111.082 1027.36 111.082C1026.92 111.082 1026.58 111.231 1026.33 111.53C1026.08 111.829 1025.95 112.219 1025.95 112.699V113.341ZM1030.97 119.862C1030.97 119.095 1031.21 118.465 1031.7 117.973C1032.19 117.475 1032.82 117.226 1033.59 117.226C1034.36 117.226 1034.99 117.472 1035.48 117.964C1035.97 118.456 1036.22 119.109 1036.22 119.924V120.548C1036.22 121.315 1035.97 121.948 1035.48 122.446C1034.99 122.938 1034.37 123.185 1033.61 123.185C1032.85 123.185 1032.22 122.941 1031.72 122.455C1031.22 121.963 1030.97 121.31 1030.97 120.495V119.862ZM1032.18 120.548C1032.18 121.011 1032.31 121.392 1032.57 121.69C1032.83 121.983 1033.17 122.13 1033.61 122.13C1034.03 122.13 1034.37 121.986 1034.62 121.699C1034.87 121.406 1035 121.011 1035 120.513V119.862C1035 119.399 1034.87 119.021 1034.61 118.729C1034.36 118.436 1034.02 118.289 1033.59 118.289C1033.17 118.289 1032.83 118.436 1032.57 118.729C1032.31 119.016 1032.18 119.405 1032.18 119.897V120.548ZM1027.75 122.033L1026.82 121.453L1033.07 111.451L1033.99 112.031L1027.75 122.033Z" fill="#EAEAEA"/>
<line x1="200" y1="40.7219" x2="519" y2="40.7219" stroke="#EEEEEE"/>
<path d="M209.325 24.1172L204.025 36H202.32L207.603 24.5391H200.677V23.2031H209.325V24.1172ZM211.918 29.584L212.568 23.2031H219.125V24.7061H213.948L213.562 28.1953C214.188 27.8262 214.9 27.6416 215.697 27.6416C216.863 27.6416 217.789 28.0283 218.475 28.8018C219.16 29.5693 219.503 30.6094 219.503 31.9219C219.503 33.2402 219.146 34.2803 218.431 35.042C217.722 35.7979 216.729 36.1758 215.451 36.1758C214.32 36.1758 213.397 35.8623 212.683 35.2354C211.968 34.6084 211.561 33.7412 211.461 32.6338H212.999C213.099 33.3662 213.359 33.9199 213.781 34.2949C214.203 34.6641 214.76 34.8486 215.451 34.8486C216.207 34.8486 216.799 34.5908 217.227 34.0752C217.66 33.5596 217.877 32.8477 217.877 31.9395C217.877 31.084 217.643 30.3984 217.174 29.8828C216.711 29.3613 216.093 29.1006 215.319 29.1006C214.61 29.1006 214.054 29.2559 213.649 29.5664L213.219 29.918L211.918 29.584ZM224.829 31.2275H220.54V29.9004H224.829V31.2275ZM231.597 36H229.962V25.1631L226.684 26.3672V24.8906L231.342 23.1416H231.597V36ZM244.385 30.542C244.385 32.4463 244.06 33.8613 243.409 34.7871C242.759 35.7129 241.742 36.1758 240.359 36.1758C238.994 36.1758 237.983 35.7246 237.327 34.8223C236.671 33.9141 236.331 32.5605 236.308 30.7617V28.5908C236.308 26.71 236.633 25.3125 237.283 24.3984C237.934 23.4844 238.953 23.0273 240.342 23.0273C241.719 23.0273 242.732 23.4697 243.383 24.3545C244.033 25.2334 244.367 26.5928 244.385 28.4326V30.542ZM242.759 28.3184C242.759 26.9414 242.565 25.9395 242.179 25.3125C241.792 24.6797 241.18 24.3633 240.342 24.3633C239.51 24.3633 238.903 24.6768 238.522 25.3037C238.142 25.9307 237.945 26.8945 237.934 28.1953V30.7969C237.934 32.1797 238.133 33.2021 238.531 33.8643C238.936 34.5205 239.545 34.8486 240.359 34.8486C241.162 34.8486 241.757 34.5381 242.144 33.917C242.536 33.2959 242.741 32.3174 242.759 30.9814V28.3184ZM254.492 30.542C254.492 32.4463 254.167 33.8613 253.517 34.7871C252.866 35.7129 251.85 36.1758 250.467 36.1758C249.102 36.1758 248.091 35.7246 247.435 34.8223C246.778 33.9141 246.438 32.5605 246.415 30.7617V28.5908C246.415 26.71 246.74 25.3125 247.391 24.3984C248.041 23.4844 249.061 23.0273 250.449 23.0273C251.826 23.0273 252.84 23.4697 253.49 24.3545C254.141 25.2334 254.475 26.5928 254.492 28.4326V30.542ZM252.866 28.3184C252.866 26.9414 252.673 25.9395 252.286 25.3125C251.899 24.6797 251.287 24.3633 250.449 24.3633C249.617 24.3633 249.011 24.6768 248.63 25.3037C248.249 25.9307 248.053 26.8945 248.041 28.1953V30.7969C248.041 32.1797 248.24 33.2021 248.639 33.8643C249.043 34.5205 249.652 34.8486 250.467 34.8486C251.27 34.8486 251.864 34.5381 252.251 33.917C252.644 33.2959 252.849 32.3174 252.866 30.9814V28.3184ZM256.435 25.6641C256.435 24.8965 256.678 24.2637 257.164 23.7656C257.656 23.2676 258.286 23.0186 259.054 23.0186C259.833 23.0186 260.463 23.2705 260.943 23.7744C261.43 24.2725 261.673 24.9199 261.673 25.7168V26.3408C261.673 27.1143 261.427 27.7471 260.935 28.2393C260.448 28.7256 259.827 28.9688 259.071 28.9688C258.31 28.9688 257.68 28.7256 257.182 28.2393C256.684 27.7471 256.435 27.0938 256.435 26.2793V25.6641ZM257.647 26.3408C257.647 26.7979 257.776 27.1758 258.034 27.4746C258.292 27.7676 258.638 27.9141 259.071 27.9141C259.487 27.9141 259.821 27.7705 260.073 27.4834C260.331 27.1963 260.46 26.8037 260.46 26.3057V25.6641C260.46 25.207 260.334 24.8291 260.082 24.5303C259.83 24.2314 259.487 24.082 259.054 24.082C258.62 24.082 258.277 24.2314 258.025 24.5303C257.773 24.8291 257.647 25.2188 257.647 25.6992V26.3408ZM262.666 32.8623C262.666 32.0947 262.909 31.4648 263.396 30.9727C263.888 30.4746 264.518 30.2256 265.285 30.2256C266.053 30.2256 266.683 30.4717 267.175 30.9639C267.667 31.4561 267.913 32.1094 267.913 32.9238V33.5479C267.913 34.3154 267.667 34.9482 267.175 35.4463C266.688 35.9385 266.064 36.1846 265.303 36.1846C264.541 36.1846 263.911 35.9414 263.413 35.4551C262.915 34.9629 262.666 34.3096 262.666 33.4951V32.8623ZM263.879 33.5479C263.879 34.0107 264.008 34.3916 264.266 34.6904C264.523 34.9834 264.869 35.1299 265.303 35.1299C265.725 35.1299 266.062 34.9863 266.313 34.6992C266.565 34.4062 266.691 34.0107 266.691 33.5127V32.8623C266.691 32.3994 266.562 32.0215 266.305 31.7285C266.053 31.4355 265.713 31.2891 265.285 31.2891C264.869 31.2891 264.529 31.4355 264.266 31.7285C264.008 32.0156 263.879 32.4053 263.879 32.8975V33.5479ZM259.44 35.0332L258.518 34.4531L264.767 24.4512L265.689 25.0312L259.44 35.0332Z" fill="#EEEEEE"/>
<path d="M209.325 50.1172L204.025 62H202.32L207.603 50.5391H200.677V49.2031H209.325V50.1172ZM211.373 61.1475C211.373 60.8662 211.455 60.6318 211.619 60.4443C211.789 60.2568 212.041 60.1631 212.375 60.1631C212.709 60.1631 212.961 60.2568 213.131 60.4443C213.307 60.6318 213.395 60.8662 213.395 61.1475C213.395 61.417 213.307 61.6426 213.131 61.8242C212.961 62.0059 212.709 62.0967 212.375 62.0967C212.041 62.0967 211.789 62.0059 211.619 61.8242C211.455 61.6426 211.373 61.417 211.373 61.1475ZM221.261 62H219.626V51.1631L216.348 52.3672V50.8906L221.006 49.1416H221.261V62ZM225.884 51.6641C225.884 50.8965 226.127 50.2637 226.613 49.7656C227.105 49.2676 227.735 49.0186 228.503 49.0186C229.282 49.0186 229.912 49.2705 230.393 49.7744C230.879 50.2725 231.122 50.9199 231.122 51.7168V52.3408C231.122 53.1143 230.876 53.7471 230.384 54.2393C229.897 54.7256 229.276 54.9688 228.521 54.9688C227.759 54.9688 227.129 54.7256 226.631 54.2393C226.133 53.7471 225.884 53.0938 225.884 52.2793V51.6641ZM227.097 52.3408C227.097 52.7979 227.226 53.1758 227.483 53.4746C227.741 53.7676 228.087 53.9141 228.521 53.9141C228.937 53.9141 229.271 53.7705 229.522 53.4834C229.78 53.1963 229.909 52.8037 229.909 52.3057V51.6641C229.909 51.207 229.783 50.8291 229.531 50.5303C229.279 50.2314 228.937 50.082 228.503 50.082C228.069 50.082 227.727 50.2314 227.475 50.5303C227.223 50.8291 227.097 51.2188 227.097 51.6992V52.3408ZM232.115 58.8623C232.115 58.0947 232.358 57.4648 232.845 56.9727C233.337 56.4746 233.967 56.2256 234.734 56.2256C235.502 56.2256 236.132 56.4717 236.624 56.9639C237.116 57.4561 237.362 58.1094 237.362 58.9238V59.5479C237.362 60.3154 237.116 60.9482 236.624 61.4463C236.138 61.9385 235.514 62.1846 234.752 62.1846C233.99 62.1846 233.36 61.9414 232.862 61.4551C232.364 60.9629 232.115 60.3096 232.115 59.4951V58.8623ZM233.328 59.5479C233.328 60.0107 233.457 60.3916 233.715 60.6904C233.973 60.9834 234.318 61.1299 234.752 61.1299C235.174 61.1299 235.511 60.9863 235.763 60.6992C236.015 60.4062 236.141 60.0107 236.141 59.5127V58.8623C236.141 58.3994 236.012 58.0215 235.754 57.7285C235.502 57.4355 235.162 57.2891 234.734 57.2891C234.318 57.2891 233.979 57.4355 233.715 57.7285C233.457 58.0156 233.328 58.4053 233.328 58.8975V59.5479ZM228.89 61.0332L227.967 60.4531L234.216 50.4512L235.139 51.0312L228.89 61.0332Z" fill="#EAEAEA"/>
<line y1="223.222" x2="319" y2="223.222" stroke="#AEAEAE" stroke-width="2"/>
<path d="M1.81055 212.584L2.46094 206.203H9.01758V207.706H3.84082L3.4541 211.195C4.08105 210.826 4.79297 210.642 5.58984 210.642C6.75586 210.642 7.68164 211.028 8.36719 211.802C9.05273 212.569 9.39551 213.609 9.39551 214.922C9.39551 216.24 9.03809 217.28 8.32324 218.042C7.61426 218.798 6.62109 219.176 5.34375 219.176C4.21289 219.176 3.29004 218.862 2.5752 218.235C1.86035 217.608 1.45312 216.741 1.35352 215.634H2.8916C2.99121 216.366 3.25195 216.92 3.67383 217.295C4.0957 217.664 4.65234 217.849 5.34375 217.849C6.09961 217.849 6.69141 217.591 7.11914 217.075C7.55273 216.56 7.76953 215.848 7.76953 214.939C7.76953 214.084 7.53516 213.398 7.06641 212.883C6.60352 212.361 5.98535 212.101 5.21191 212.101C4.50293 212.101 3.94629 212.256 3.54199 212.566L3.11133 212.918L1.81055 212.584ZM19.1953 213.542C19.1953 215.446 18.8701 216.861 18.2197 217.787C17.5693 218.713 16.5527 219.176 15.1699 219.176C13.8047 219.176 12.7939 218.725 12.1377 217.822C11.4814 216.914 11.1416 215.561 11.1182 213.762V211.591C11.1182 209.71 11.4434 208.312 12.0938 207.398C12.7441 206.484 13.7637 206.027 15.1523 206.027C16.5293 206.027 17.543 206.47 18.1934 207.354C18.8438 208.233 19.1777 209.593 19.1953 211.433V213.542ZM17.5693 211.318C17.5693 209.941 17.376 208.939 16.9893 208.312C16.6025 207.68 15.9902 207.363 15.1523 207.363C14.3203 207.363 13.7139 207.677 13.333 208.304C12.9521 208.931 12.7559 209.895 12.7441 211.195V213.797C12.7441 215.18 12.9434 216.202 13.3418 216.864C13.7461 217.521 14.3555 217.849 15.1699 217.849C15.9727 217.849 16.5674 217.538 16.9541 216.917C17.3467 216.296 17.5518 215.317 17.5693 213.981V211.318ZM24.8291 214.228H20.54V212.9H24.8291V214.228ZM34.5146 207.117L29.2148 219H27.5098L32.792 207.539H25.8662V206.203H34.5146V207.117ZM37.1074 212.584L37.7578 206.203H44.3145V207.706H39.1377L38.751 211.195C39.3779 210.826 40.0898 210.642 40.8867 210.642C42.0527 210.642 42.9785 211.028 43.6641 211.802C44.3496 212.569 44.6924 213.609 44.6924 214.922C44.6924 216.24 44.335 217.28 43.6201 218.042C42.9111 218.798 41.918 219.176 40.6406 219.176C39.5098 219.176 38.5869 218.862 37.8721 218.235C37.1572 217.608 36.75 216.741 36.6504 215.634H38.1885C38.2881 216.366 38.5488 216.92 38.9707 217.295C39.3926 217.664 39.9492 217.849 40.6406 217.849C41.3965 217.849 41.9883 217.591 42.416 217.075C42.8496 216.56 43.0664 215.848 43.0664 214.939C43.0664 214.084 42.832 213.398 42.3633 212.883C41.9004 212.361 41.2822 212.101 40.5088 212.101C39.7998 212.101 39.2432 212.256 38.8389 212.566L38.4082 212.918L37.1074 212.584ZM46.3271 208.664C46.3271 207.896 46.5703 207.264 47.0566 206.766C47.5488 206.268 48.1787 206.019 48.9463 206.019C49.7256 206.019 50.3555 206.271 50.8359 206.774C51.3223 207.272 51.5654 207.92 51.5654 208.717V209.341C51.5654 210.114 51.3193 210.747 50.8271 211.239C50.3408 211.726 49.7197 211.969 48.9639 211.969C48.2021 211.969 47.5723 211.726 47.0742 211.239C46.5762 210.747 46.3271 210.094 46.3271 209.279V208.664ZM47.54 209.341C47.54 209.798 47.6689 210.176 47.9268 210.475C48.1846 210.768 48.5303 210.914 48.9639 210.914C49.3799 210.914 49.7139 210.771 49.9658 210.483C50.2236 210.196 50.3525 209.804 50.3525 209.306V208.664C50.3525 208.207 50.2266 207.829 49.9746 207.53C49.7227 207.231 49.3799 207.082 48.9463 207.082C48.5127 207.082 48.1699 207.231 47.918 207.53C47.666 207.829 47.54 208.219 47.54 208.699V209.341ZM52.5586 215.862C52.5586 215.095 52.8018 214.465 53.2881 213.973C53.7803 213.475 54.4102 213.226 55.1777 213.226C55.9453 213.226 56.5752 213.472 57.0674 213.964C57.5596 214.456 57.8057 215.109 57.8057 215.924V216.548C57.8057 217.315 57.5596 217.948 57.0674 218.446C56.5811 218.938 55.957 219.185 55.1953 219.185C54.4336 219.185 53.8037 218.941 53.3057 218.455C52.8076 217.963 52.5586 217.31 52.5586 216.495V215.862ZM53.7715 216.548C53.7715 217.011 53.9004 217.392 54.1582 217.69C54.416 217.983 54.7617 218.13 55.1953 218.13C55.6172 218.13 55.9541 217.986 56.2061 217.699C56.458 217.406 56.584 217.011 56.584 216.513V215.862C56.584 215.399 56.4551 215.021 56.1973 214.729C55.9453 214.436 55.6055 214.289 55.1777 214.289C54.7617 214.289 54.4219 214.436 54.1582 214.729C53.9004 215.016 53.7715 215.405 53.7715 215.897V216.548ZM49.333 218.033L48.4102 217.453L54.6592 207.451L55.582 208.031L49.333 218.033Z" fill="#EEEEEE"/>
<path d="M9.44824 245H1.06348V243.831L5.49316 238.909C6.14941 238.165 6.60059 237.562 6.84668 237.099C7.09863 236.63 7.22461 236.146 7.22461 235.648C7.22461 234.98 7.02246 234.433 6.61816 234.005C6.21387 233.577 5.6748 233.363 5.00098 233.363C4.19238 233.363 3.5625 233.595 3.11133 234.058C2.66602 234.515 2.44336 235.153 2.44336 235.974H0.817383C0.817383 234.796 1.19531 233.844 1.95117 233.117C2.71289 232.391 3.72949 232.027 5.00098 232.027C6.19043 232.027 7.13086 232.341 7.82227 232.968C8.51367 233.589 8.85938 234.418 8.85938 235.455C8.85938 236.715 8.05664 238.215 6.45117 239.955L3.02344 243.673H9.44824V245ZM11.918 238.584L12.5684 232.203H19.125V233.706H13.9482L13.5615 237.195C14.1885 236.826 14.9004 236.642 15.6973 236.642C16.8633 236.642 17.7891 237.028 18.4746 237.802C19.1602 238.569 19.5029 239.609 19.5029 240.922C19.5029 242.24 19.1455 243.28 18.4307 244.042C17.7217 244.798 16.7285 245.176 15.4512 245.176C14.3203 245.176 13.3975 244.862 12.6826 244.235C11.9678 243.608 11.5605 242.741 11.4609 241.634H12.999C13.0986 242.366 13.3594 242.92 13.7812 243.295C14.2031 243.664 14.7598 243.849 15.4512 243.849C16.207 243.849 16.7988 243.591 17.2266 243.075C17.6602 242.56 17.877 241.848 17.877 240.939C17.877 240.084 17.6426 239.398 17.1738 238.883C16.7109 238.361 16.0928 238.101 15.3193 238.101C14.6104 238.101 14.0537 238.256 13.6494 238.566L13.2188 238.918L11.918 238.584ZM21.1377 234.664C21.1377 233.896 21.3809 233.264 21.8672 232.766C22.3594 232.268 22.9893 232.019 23.7568 232.019C24.5361 232.019 25.166 232.271 25.6465 232.774C26.1328 233.272 26.376 233.92 26.376 234.717V235.341C26.376 236.114 26.1299 236.747 25.6377 237.239C25.1514 237.726 24.5303 237.969 23.7744 237.969C23.0127 237.969 22.3828 237.726 21.8848 237.239C21.3867 236.747 21.1377 236.094 21.1377 235.279V234.664ZM22.3506 235.341C22.3506 235.798 22.4795 236.176 22.7373 236.475C22.9951 236.768 23.3408 236.914 23.7744 236.914C24.1904 236.914 24.5244 236.771 24.7764 236.483C25.0342 236.196 25.1631 235.804 25.1631 235.306V234.664C25.1631 234.207 25.0371 233.829 24.7852 233.53C24.5332 233.231 24.1904 233.082 23.7568 233.082C23.3232 233.082 22.9805 233.231 22.7285 233.53C22.4766 233.829 22.3506 234.219 22.3506 234.699V235.341ZM27.3691 241.862C27.3691 241.095 27.6123 240.465 28.0986 239.973C28.5908 239.475 29.2207 239.226 29.9883 239.226C30.7559 239.226 31.3857 239.472 31.8779 239.964C32.3701 240.456 32.6162 241.109 32.6162 241.924V242.548C32.6162 243.315 32.3701 243.948 31.8779 244.446C31.3916 244.938 30.7676 245.185 30.0059 245.185C29.2441 245.185 28.6143 244.941 28.1162 244.455C27.6182 243.963 27.3691 243.31 27.3691 242.495V241.862ZM28.582 242.548C28.582 243.011 28.7109 243.392 28.9688 243.69C29.2266 243.983 29.5723 244.13 30.0059 244.13C30.4277 244.13 30.7646 243.986 31.0166 243.699C31.2686 243.406 31.3945 243.011 31.3945 242.513V241.862C31.3945 241.399 31.2656 241.021 31.0078 240.729C30.7559 240.436 30.416 240.289 29.9883 240.289C29.5723 240.289 29.2324 240.436 28.9688 240.729C28.7109 241.016 28.582 241.405 28.582 241.897V242.548ZM24.1436 244.033L23.2207 243.453L29.4697 233.451L30.3926 234.031L24.1436 244.033Z" fill="#EAEAEA"/>
<line x1="718" y1="513.222" x2="1037" y2="513.222" stroke="#AEAEAE" stroke-width="2"/>
<path d="M987.861 509H979.476V507.831L983.905 502.909C984.562 502.165 985.013 501.562 985.259 501.099C985.511 500.63 985.637 500.146 985.637 499.648C985.637 498.98 985.435 498.433 985.03 498.005C984.626 497.577 984.087 497.363 983.413 497.363C982.605 497.363 981.975 497.595 981.524 498.058C981.078 498.515 980.856 499.153 980.856 499.974H979.23C979.23 498.796 979.608 497.844 980.363 497.117C981.125 496.391 982.142 496.027 983.413 496.027C984.603 496.027 985.543 496.341 986.235 496.968C986.926 497.589 987.272 498.418 987.272 499.455C987.272 500.715 986.469 502.215 984.863 503.955L981.436 507.673H987.861V509ZM990.33 502.584L990.981 496.203H997.537V497.706H992.361L991.974 501.195C992.601 500.826 993.313 500.642 994.11 500.642C995.276 500.642 996.201 501.028 996.887 501.802C997.572 502.569 997.915 503.609 997.915 504.922C997.915 506.24 997.558 507.28 996.843 508.042C996.134 508.798 995.141 509.176 993.863 509.176C992.733 509.176 991.81 508.862 991.095 508.235C990.38 507.608 989.973 506.741 989.873 505.634H991.411C991.511 506.366 991.772 506.92 992.194 507.295C992.615 507.664 993.172 507.849 993.863 507.849C994.619 507.849 995.211 507.591 995.639 507.075C996.072 506.56 996.289 505.848 996.289 504.939C996.289 504.084 996.055 503.398 995.586 502.883C995.123 502.361 994.505 502.101 993.732 502.101C993.023 502.101 992.466 502.256 992.062 502.566L991.631 502.918L990.33 502.584ZM1003.24 504.228H998.952V502.9H1003.24V504.228ZM1005.41 502.584L1006.06 496.203H1012.62V497.706H1007.44L1007.06 501.195C1007.68 500.826 1008.39 500.642 1009.19 500.642C1010.36 500.642 1011.28 501.028 1011.97 501.802C1012.65 502.569 1013 503.609 1013 504.922C1013 506.24 1012.64 507.28 1011.92 508.042C1011.22 508.798 1010.22 509.176 1008.95 509.176C1007.81 509.176 1006.89 508.862 1006.18 508.235C1005.46 507.608 1005.05 506.741 1004.96 505.634H1006.49C1006.59 506.366 1006.85 506.92 1007.28 507.295C1007.7 507.664 1008.25 507.849 1008.95 507.849C1009.7 507.849 1010.29 507.591 1010.72 507.075C1011.15 506.56 1011.37 505.848 1011.37 504.939C1011.37 504.084 1011.14 503.398 1010.67 502.883C1010.21 502.361 1009.59 502.101 1008.81 502.101C1008.1 502.101 1007.55 502.256 1007.14 502.566L1006.71 502.918L1005.41 502.584ZM1022.8 503.542C1022.8 505.446 1022.47 506.861 1021.82 507.787C1021.17 508.713 1020.15 509.176 1018.77 509.176C1017.41 509.176 1016.4 508.725 1015.74 507.822C1015.08 506.914 1014.74 505.561 1014.72 503.762V501.591C1014.72 499.71 1015.05 498.312 1015.7 497.398C1016.35 496.484 1017.37 496.027 1018.75 496.027C1020.13 496.027 1021.14 496.47 1021.8 497.354C1022.45 498.233 1022.78 499.593 1022.8 501.433V503.542ZM1021.17 501.318C1021.17 499.941 1020.98 498.939 1020.59 498.312C1020.2 497.68 1019.59 497.363 1018.75 497.363C1017.92 497.363 1017.32 497.677 1016.93 498.304C1016.55 498.931 1016.36 499.895 1016.35 501.195V503.797C1016.35 505.18 1016.55 506.202 1016.94 506.864C1017.35 507.521 1017.96 507.849 1018.77 507.849C1019.57 507.849 1020.17 507.538 1020.56 506.917C1020.95 506.296 1021.15 505.317 1021.17 503.981V501.318ZM1024.74 498.664C1024.74 497.896 1024.98 497.264 1025.47 496.766C1025.96 496.268 1026.59 496.019 1027.36 496.019C1028.14 496.019 1028.77 496.271 1029.25 496.774C1029.73 497.272 1029.98 497.92 1029.98 498.717V499.341C1029.98 500.114 1029.73 500.747 1029.24 501.239C1028.75 501.726 1028.13 501.969 1027.38 501.969C1026.61 501.969 1025.98 501.726 1025.49 501.239C1024.99 500.747 1024.74 500.094 1024.74 499.279V498.664ZM1025.95 499.341C1025.95 499.798 1026.08 500.176 1026.34 500.475C1026.6 500.768 1026.94 500.914 1027.38 500.914C1027.79 500.914 1028.13 500.771 1028.38 500.483C1028.64 500.196 1028.76 499.804 1028.76 499.306V498.664C1028.76 498.207 1028.64 497.829 1028.39 497.53C1028.13 497.231 1027.79 497.082 1027.36 497.082C1026.92 497.082 1026.58 497.231 1026.33 497.53C1026.08 497.829 1025.95 498.219 1025.95 498.699V499.341ZM1030.97 505.862C1030.97 505.095 1031.21 504.465 1031.7 503.973C1032.19 503.475 1032.82 503.226 1033.59 503.226C1034.36 503.226 1034.99 503.472 1035.48 503.964C1035.97 504.456 1036.22 505.109 1036.22 505.924V506.548C1036.22 507.315 1035.97 507.948 1035.48 508.446C1034.99 508.938 1034.37 509.185 1033.61 509.185C1032.85 509.185 1032.22 508.941 1031.72 508.455C1031.22 507.963 1030.97 507.31 1030.97 506.495V505.862ZM1032.18 506.548C1032.18 507.011 1032.31 507.392 1032.57 507.69C1032.83 507.983 1033.17 508.13 1033.61 508.13C1034.03 508.13 1034.37 507.986 1034.62 507.699C1034.87 507.406 1035 507.011 1035 506.513V505.862C1035 505.399 1034.87 505.021 1034.61 504.729C1034.36 504.436 1034.02 504.289 1033.59 504.289C1033.17 504.289 1032.83 504.436 1032.57 504.729C1032.31 505.016 1032.18 505.405 1032.18 505.897V506.548ZM1027.75 508.033L1026.82 507.453L1033.07 497.451L1033.99 498.031L1027.75 508.033Z" fill="#EEEEEE"/>
<path d="M996.676 531.702H998.451V533.029H996.676V536H995.041V533.029H989.214V532.071L994.945 523.203H996.676V531.702ZM991.06 531.702H995.041V525.427L994.848 525.778L991.06 531.702ZM1006.3 523.194V524.574H1006C1004.74 524.598 1003.73 524.973 1002.98 525.699C1002.23 526.426 1001.79 527.448 1001.68 528.767C1002.35 527.993 1003.27 527.606 1004.44 527.606C1005.55 527.606 1006.44 527.999 1007.1 528.784C1007.77 529.569 1008.1 530.583 1008.1 531.825C1008.1 533.144 1007.74 534.198 1007.02 534.989C1006.31 535.78 1005.34 536.176 1004.14 536.176C1002.91 536.176 1001.92 535.707 1001.16 534.77C1000.4 533.826 1000.02 532.613 1000.02 531.131V530.507C1000.02 528.151 1000.52 526.353 1001.52 525.11C1002.53 523.862 1004.02 523.224 1006.01 523.194H1006.3ZM1004.16 528.96C1003.61 528.96 1003.09 529.127 1002.63 529.461C1002.16 529.795 1001.83 530.214 1001.65 530.718V531.315C1001.65 532.37 1001.89 533.22 1002.36 533.864C1002.84 534.509 1003.43 534.831 1004.14 534.831C1004.87 534.831 1005.44 534.562 1005.86 534.022C1006.28 533.483 1006.49 532.777 1006.49 531.904C1006.49 531.025 1006.28 530.316 1005.85 529.777C1005.43 529.232 1004.87 528.96 1004.16 528.96ZM1010.23 535.147C1010.23 534.866 1010.31 534.632 1010.47 534.444C1010.64 534.257 1010.9 534.163 1011.23 534.163C1011.56 534.163 1011.82 534.257 1011.99 534.444C1012.16 534.632 1012.25 534.866 1012.25 535.147C1012.25 535.417 1012.16 535.643 1011.99 535.824C1011.82 536.006 1011.56 536.097 1011.23 536.097C1010.9 536.097 1010.64 536.006 1010.47 535.824C1010.31 535.643 1010.23 535.417 1010.23 535.147ZM1021.64 531.702H1023.41V533.029H1021.64V536H1020V533.029H1014.17V532.071L1019.91 523.203H1021.64V531.702ZM1016.02 531.702H1020V525.427L1019.81 525.778L1016.02 531.702ZM1024.74 525.664C1024.74 524.896 1024.98 524.264 1025.47 523.766C1025.96 523.268 1026.59 523.019 1027.36 523.019C1028.14 523.019 1028.77 523.271 1029.25 523.774C1029.73 524.272 1029.98 524.92 1029.98 525.717V526.341C1029.98 527.114 1029.73 527.747 1029.24 528.239C1028.75 528.726 1028.13 528.969 1027.38 528.969C1026.61 528.969 1025.98 528.726 1025.49 528.239C1024.99 527.747 1024.74 527.094 1024.74 526.279V525.664ZM1025.95 526.341C1025.95 526.798 1026.08 527.176 1026.34 527.475C1026.6 527.768 1026.94 527.914 1027.38 527.914C1027.79 527.914 1028.13 527.771 1028.38 527.483C1028.64 527.196 1028.76 526.804 1028.76 526.306V525.664C1028.76 525.207 1028.64 524.829 1028.39 524.53C1028.13 524.231 1027.79 524.082 1027.36 524.082C1026.92 524.082 1026.58 524.231 1026.33 524.53C1026.08 524.829 1025.95 525.219 1025.95 525.699V526.341ZM1030.97 532.862C1030.97 532.095 1031.21 531.465 1031.7 530.973C1032.19 530.475 1032.82 530.226 1033.59 530.226C1034.36 530.226 1034.99 530.472 1035.48 530.964C1035.97 531.456 1036.22 532.109 1036.22 532.924V533.548C1036.22 534.315 1035.97 534.948 1035.48 535.446C1034.99 535.938 1034.37 536.185 1033.61 536.185C1032.85 536.185 1032.22 535.941 1031.72 535.455C1031.22 534.963 1030.97 534.31 1030.97 533.495V532.862ZM1032.18 533.548C1032.18 534.011 1032.31 534.392 1032.57 534.69C1032.83 534.983 1033.17 535.13 1033.61 535.13C1034.03 535.13 1034.37 534.986 1034.62 534.699C1034.87 534.406 1035 534.011 1035 533.513V532.862C1035 532.399 1034.87 532.021 1034.61 531.729C1034.36 531.436 1034.02 531.289 1033.59 531.289C1033.17 531.289 1032.83 531.436 1032.57 531.729C1032.31 532.016 1032.18 532.405 1032.18 532.897V533.548ZM1027.75 535.033L1026.82 534.453L1033.07 524.451L1033.99 525.031L1027.75 535.033Z" fill="#EAEAEA"/>
</svg>
